<?xml version="1.0" encoding="utf-8" ?><svg xmlns="http://www.w3.org/2000/svg" xmlns:xlink="http://www.w3.org/1999/xlink" width="1254" height="1254" viewBox="0 0 1254 1254"><path d="M0 0L1254 0L1254 1254L0 1254L0 0Z"/><path d="M447.015 330.534C454.222 330.46 465.014 330.093 471.908 330.66L597.28 330.527L640.062 330.515C657.283 330.522 689.417 330.444 704.332 338.953C709.876 340.613 714.135 342.757 719.152 345.64C721.394 346.747 722.513 347.209 724.469 348.717C739.788 356.988 759.323 376.65 766.938 392.4C782.636 414.695 786.648 454.237 782.049 480.891C776.612 513.387 758.428 542.368 731.533 561.4C727.916 563.934 722.412 567.303 718.337 569.103C710.498 575.219 701.008 575.256 691.86 575.194C697.829 579.319 704.835 586.845 710.13 592.137C717.265 599.31 724.463 606.422 731.721 613.47L803.844 684.297C816.01 696.261 829.176 709.948 841.658 721.316L777.79 721.234L616.59 559.471C615.97 586.434 616.422 614.808 616.445 641.898L523.561 693.58C497.524 708.02 482.949 720.418 451.95 721.515L481.028 702.457C480.136 677.865 480.987 647.111 480.996 622.116L481.134 457.995L481.121 404.002C481.047 364.52 482.19 353.886 447.015 330.534Z"/><defs><linearGradient id="gradient_0" gradientUnits="userSpaceOnUse" x1="428.91171" y1="684.05322" x2="691.33038" y2="491.11514"><stop offset="0" stop-color="#9E793B"/><stop offset="1" stop-color="#BD9A64"/></linearGradient></defs><path fill="url(#gradient_0)" d="M447.015 330.534C454.222 330.46 465.014 330.093 471.908 330.66C476.384 331.778 498.887 331.495 504.479 331.136C524.198 329.869 521.477 334.972 531.178 350.392C533.724 354.553 538.475 359.145 539.2 364.379C536.992 368.9 527.946 363.741 522.491 367.065C521.905 368.751 522.251 369.335 522.643 371.11C523.439 377.084 522.992 394.345 522.98 401.317L522.874 462.108L523.074 676.577C533.807 670.329 544.501 664.015 555.156 657.635L555.2 549.175C555.192 532.113 554.633 512.66 555.13 495.869C562.92 492.579 570.963 489.568 578.643 486.262C578.6 490.414 578.107 512.25 579.195 515.186C584.647 512.335 590.982 509.991 596.825 506.972C596.026 501.71 596.409 480.938 596.407 474.529C603.517 471.618 608.626 468.902 616.357 469.573C624.982 469.468 628.599 471.212 636.484 474.418C637.301 480.948 636.753 499.296 636.801 507.158C639.301 508.441 641.809 509.835 644.44 510.789C647.139 511.866 652.283 513.776 654.644 515.028C654.567 510.922 653.949 488.833 655.564 486.925L656.994 487.579C663.638 490.416 671.047 493.777 677.862 495.975C677.852 501.982 677.346 542.085 678.61 544.383C687.502 541.867 692.623 539.207 700.522 536.599L701.202 537.013C706.193 534.298 710.96 531.19 715.458 527.718C719.888 534.153 727.862 547.119 734.077 551.049C736.263 552.431 736.544 552.408 737.38 554.644C735.41 559.754 718.433 566.5 718.215 568.848L718.337 569.103C710.498 575.219 701.008 575.256 691.86 575.194C697.829 579.319 704.835 586.845 710.13 592.137C717.265 599.31 724.463 606.422 731.721 613.47L803.844 684.297C816.01 696.261 829.176 709.948 841.658 721.316L777.79 721.234L616.59 559.471C615.97 586.434 616.422 614.808 616.445 641.898L523.561 693.58C497.524 708.02 482.949 720.418 451.95 721.515L481.028 702.457C480.136 677.865 480.987 647.111 480.996 622.116L481.134 457.995L481.121 404.002C481.047 364.52 482.19 353.886 447.015 330.534Z"/><defs><linearGradient id="gradient_1" gradientUnits="userSpaceOnUse" x1="662.73438" y1="513.72083" x2="680.03485" y2="503.31021"><stop offset="0" stop-color="#D9B77B"/><stop offset="1" stop-color="#FFE5AB"/></linearGradient></defs><path fill="url(#gradient_1)" d="M656.994 487.579C663.638 490.416 671.047 493.777 677.862 495.975C677.852 501.982 677.346 542.085 678.61 544.383L678.459 545.053C676.354 544.522 677.21 545.051 675.792 543.423L676.554 542.91C672.464 539.061 677.884 534.328 675.941 532.632C670.146 527.574 670.167 526.261 667.562 519.646C665.17 513.573 660.434 512.939 658.617 504.513L658.416 503.555C657.653 506.974 658.474 509.09 657.046 512.699L656.282 512.651C654.896 509.033 657.266 505.736 657.456 502.291C657.643 498.885 656.054 490.291 656.994 487.579Z"/><path fill="#B39158" d="M636.484 474.418C637.301 480.948 636.753 499.296 636.801 507.158C639.301 508.441 641.809 509.835 644.44 510.789C647.139 511.866 652.283 513.776 654.644 515.028C655.014 519.18 655.2 521.53 655.057 525.682C654.379 526.458 654.741 526.336 654.205 526.448C647.85 523.68 628.744 514.955 628.425 507.737C629.406 505.593 628.634 506.225 630.358 505.263L632.464 505.871C634.001 501.626 633.33 497.824 635.403 494.444L636.027 494.214C635.956 488.311 635.93 480.149 636.484 474.418Z"/><path fill="#906C35" d="M644.44 510.789C647.139 511.866 652.283 513.776 654.644 515.028C655.014 519.18 655.2 521.53 655.057 525.682C654.379 526.458 654.741 526.336 654.205 526.448C651.515 521.507 646.097 514.157 644.44 510.789Z"/><path fill="#E7C08B" d="M635.403 494.444L636.027 494.214C636.234 497.915 636.909 502.454 635.814 505.786C634.07 506.764 635.047 506.45 632.464 505.871C634.001 501.626 633.33 497.824 635.403 494.444Z"/><path fill="#E7C08B" d="M596.825 506.972C597.233 504.837 597.052 503.03 598.026 501.623L598.41 502.671L599.343 502.163C604.239 510.951 595.909 512.452 590.355 516.87C588.89 518.035 586.672 520.513 585.313 521.946L578.942 525.206C578.839 521.77 578.553 518.547 579.195 515.186C584.647 512.335 590.982 509.991 596.825 506.972Z"/><path fill="#E7C08B" d="M616.357 469.573C624.982 469.468 628.599 471.212 636.484 474.418C635.93 480.149 635.956 488.311 636.027 494.214L635.403 494.444C635.388 490.937 636.174 487.123 632.137 485.381C627.06 483.192 626.191 476.207 623.526 471.823C622.838 470.691 617.836 469.92 616.357 469.573Z"/><path fill="#B39158" d="M599.343 502.163C599.471 500 599.11 499.47 600.189 498.061C602.597 501.19 604.97 513.192 599.919 515.501C595.25 517.636 590.092 519.982 585.313 521.946C586.672 520.513 588.89 518.035 590.355 516.87C595.909 512.452 604.239 510.951 599.343 502.163Z"/><path fill="#B39158" d="M521.383 442.618L521.778 443.009C523.156 447.69 522.051 470.445 521.608 476.272L521.502 476.315C520.87 467.893 520.954 450.901 521.383 442.618Z"/><defs><linearGradient id="gradient_2" gradientUnits="userSpaceOnUse" x1="623.68988" y1="448.96765" x2="721.06476" y2="344.11746"><stop offset="0" stop-color="#E0BB84"/><stop offset="1" stop-color="#FBDEA5"/></linearGradient></defs><path fill="url(#gradient_2)" d="M471.908 330.66L597.28 330.527L640.062 330.515C657.283 330.522 689.417 330.444 704.332 338.953C709.876 340.613 714.135 342.757 719.152 345.64C721.394 346.747 722.513 347.209 724.469 348.717C739.788 356.988 759.323 376.65 766.938 392.4C782.636 414.695 786.648 454.237 782.049 480.891C776.612 513.387 758.428 542.368 731.533 561.4C727.916 563.934 722.412 567.303 718.337 569.103L718.215 568.848C718.433 566.5 735.41 559.754 737.38 554.644C736.544 552.408 736.263 552.431 734.077 551.049C727.862 547.119 719.888 534.153 715.458 527.718C710.96 531.19 706.193 534.298 701.202 537.013L700.522 536.599C702.242 535.018 706.663 532.286 708.728 530.895C749.753 503.275 757.713 442.985 729.36 403.573C715.796 384.629 695.202 371.917 672.188 368.284C665.813 367.31 640.929 366.497 634.952 366.998C622.619 368.033 526.828 365.267 523.093 367.982L522.643 371.11C522.251 369.335 521.905 368.751 522.491 367.065C527.946 363.741 536.992 368.9 539.2 364.379C538.475 359.145 533.724 354.553 531.178 350.392C521.477 334.972 524.198 329.869 504.479 331.136C498.887 331.495 476.384 331.778 471.908 330.66Z"/><path fill="#FEE6B2" d="M724.469 348.717C739.788 356.988 759.323 376.65 766.938 392.4L766.398 392.686C762.262 392.202 762.11 392.201 758.448 390.038C758.197 389.556 756.236 385.643 756.121 385.525C753.496 382.832 755.68 378.54 754.217 376.349C752.392 376.559 751.646 376.678 749.786 376.62C746.97 374.893 744.644 371.439 742.511 368.753C742.518 366.829 742.716 365.442 741.916 363.71C738.315 362.142 735.106 363.036 731.277 362.308C727.755 361.637 724.162 351.056 724.469 348.717Z"/><path fill="#FEE6B2" d="M704.332 338.953C709.876 340.613 714.135 342.757 719.152 345.64C716.382 346.93 717.792 344.706 716.09 345.149C704.933 348.053 709.539 344.013 704.208 339.747L704.332 338.953Z"/><path fill="#E7C08B" d="M218.134 787.639C221.502 787.497 225.2 787.414 228.883 787.55C254.8 788.511 307.561 779.479 304.805 820.456C303.787 835.589 290.461 841.947 277.147 845.277C285.135 854.855 293.193 864.319 301.373 873.724C309.882 883.505 314.624 887.682 327.09 891.349C318.972 891.537 303.618 893.029 296.944 889.304C288.652 883.477 267.767 856.298 259.398 846.818L241.915 846.798C241.814 858.784 241.45 872.641 241.96 884.724C242.062 887.135 245.664 889.41 247.588 890.622L248.296 891.061C246.724 891.805 221.724 891.435 217.819 891.417C220.492 890.27 223.477 889.368 224.933 886.636C226.202 884.255 226.635 798.218 225.034 793.301C224.049 790.278 220.733 788.943 218.134 787.639Z"/><path d="M241.915 791.866C259.799 791.789 286.642 788.704 288.42 814.431C289.056 823.63 287.3 828.168 281.245 835.009C271.199 844.117 255.008 842.071 241.918 842.093C241.819 825.351 241.818 808.608 241.915 791.866Z"/><path fill="#E7C08B" d="M1022.05 787.544C1029.04 787.495 1036.9 787.262 1043.81 787.666L1044.13 788.319C1041.76 789.477 1040 790.504 1038.81 792.982C1038.07 794.554 1037.92 796.297 1037.83 798.012C1037.37 807.21 1036.65 882.694 1038.73 886.689C1040.01 889.151 1043.75 890.39 1046.15 891.439C1035.4 891.521 1024.65 891.503 1013.9 891.385C1015.94 890.673 1018.78 889.823 1020.19 888.097C1023.62 883.913 1021.99 832.067 1021.98 823.091L1021.91 802.439C1014.64 819.569 1005.51 837.647 997.947 854.914C994.478 862.833 985.488 884.569 981.686 890.919C979.983 891.77 980.002 891.588 978.073 891.259C974.53 885.043 967.525 868.021 964.172 860.45C955.757 841.623 947.241 822.841 938.623 804.106C938.537 814.338 937.263 881.202 939.26 886.249C940.504 889.394 944.186 890.314 947.05 891.403C940.462 891.495 932.257 891.837 925.819 891.271L925.861 890.706C929.319 889.184 932.449 887.145 932.447 882.847C932.43 853.454 933.321 823.741 932.046 794.431C931.91 791.297 927.409 788.974 925.093 787.66C932.244 787.326 941.231 787.558 948.522 787.552C960.298 813.579 972.866 844.123 985.213 869.347C988.774 862.813 993.952 850.151 997.24 842.947C1005.67 824.551 1013.94 806.083 1022.05 787.544Z"/><path fill="#E7C08B" d="M406.456 787.669C415.095 787.24 425.945 787.526 434.707 787.524L487.368 787.506C488.115 794.903 488.583 802.325 488.769 809.757C481.079 792.042 477.648 792.096 457.841 791.787C448.688 791.643 439.111 791.829 429.924 791.873L429.955 836.656C436.875 836.345 443.947 836.915 450.875 836.81C460.306 836.668 462.843 833.774 466.003 825.808C466.2 834.564 466.199 843.322 465.998 852.078C464.923 849.247 462.967 843.837 460.241 842.721C455.454 840.762 435.14 840.803 430.44 841.701C429.616 843.387 429.897 846.464 429.912 848.471L429.894 887.155C443.944 887.068 464.59 888.431 477.893 885.427C485.292 883.756 489.338 874.53 492.576 868.114C492.303 874.996 490.991 884.44 490.27 891.509L438.067 891.539C434.606 891.543 408.412 892.092 407.167 890.696C411.597 889.157 414.051 887.029 413.971 881.701C413.53 852.541 415.217 822.883 413.305 793.838C413.128 791.143 408.693 788.9 406.456 787.669Z"/><path fill="#E7C08B" d="M608.553 787.653C614.688 787.307 623.386 787.534 629.715 787.52L659.548 853.259C664.056 863.247 669.321 876.268 674.92 885.581C676.509 888.223 681.847 890.261 684.803 891.421C680.737 891.458 652.6 892.294 651.312 890.762C653.37 889.669 654.055 889.489 655.454 887.586C656.802 882.743 649.006 868.19 646.576 862.745L626.589 817.853C624.988 814.333 623.307 810.85 621.547 807.406L598.432 857.848C594.563 866.324 590.404 874.887 587.155 883.602C585.458 888.157 590.305 889.95 593.392 891.408C585.687 891.471 577.981 891.476 570.275 891.421C572.328 890.442 577.052 888.229 578.177 886.442C583.512 877.976 588.394 866.115 592.558 857.025C601.112 838.188 609.809 819.416 618.65 800.711C615.832 793.213 615.358 791.612 608.553 787.653Z"/><path fill="#E7C08B" d="M763.604 787.693C767.056 787.474 792.382 787.213 793.408 788.004C788.042 790.994 787.556 792.576 787.37 799.019C787.078 809.136 787.227 819.342 787.238 829.471L787.264 887.081C800.309 887.165 817.24 887.92 830.003 886.531C841.572 885.272 843.796 875.792 847.9 869.921C848.681 871.386 848.195 872.439 847.998 874.458C847.439 880.148 846.809 885.831 846.108 891.505C837.573 891.484 765.503 892.048 764.324 890.828C768.597 888.484 770.942 888.18 770.915 882.279C770.785 852.882 771.795 823.172 770.476 793.861C770.354 791.16 765.646 788.785 763.604 787.693Z"/></svg>